<svg width="512" height="512" viewBox="0 0 512 512" fill="none" xmlns="http://www.w3.org/2000/svg">
<rect width="512" height="512" rx="256" fill="#3E3D39"/>
<path d="M170.534 85.1627C166.143 86.7646 161.115 90.2086 157.043 94.3735C151.456 100.14 147.385 111.754 144.272 130.736C143.394 135.943 142.595 140.348 142.516 140.428C142.356 140.508 139.323 141.389 135.651 142.43C132.059 143.471 129.265 144.433 129.424 144.593C129.584 144.833 132.857 144.913 136.609 144.913C143.074 144.833 143.473 144.993 143.793 146.675C144.032 147.636 144.751 151.641 145.469 155.646C146.187 159.57 148.423 167.66 150.338 173.427C156.485 192.169 162.072 201.54 175.084 215.316C183.944 224.687 192.166 234.058 192.166 234.779C192.166 235.019 189.532 235.82 186.419 236.621C178.756 238.544 163.589 238.624 156.405 236.701C149.859 234.939 140.36 230.534 135.491 226.93C133.336 225.328 128.706 220.763 125.114 216.678C107.952 196.975 99.0914 188.725 90.4704 184.32C84.8029 181.356 79.3749 181.356 74.9846 184.32C69.796 187.764 68.9978 190.086 68.9978 201.7C68.9978 211.151 69.2373 212.673 73.4679 229.333C77.4591 245.271 77.9381 246.633 78.417 243.83C79.1354 240.065 78.5767 230.854 76.7407 218.28C75.6232 210.43 75.5434 207.627 76.2618 201.7C77.2995 192.89 78.0977 191.288 81.2108 191.288C84.5634 191.288 89.2731 195.853 94.6213 204.103C118.169 240.786 123.198 246.072 142.675 254.562C145.948 256.004 150.099 257.766 151.855 258.567C158.081 261.37 164.387 262.011 179.953 261.531L194.72 261.05L189.691 266.416C186.898 269.38 183.625 272.504 182.507 273.385C181.31 274.266 178.356 276.508 175.962 278.35C169.576 283.236 161.514 287.481 156.325 288.683C150.977 289.964 139.722 290.124 125.433 289.003C107.074 287.561 97.4949 290.124 89.9116 298.374C85.9205 302.699 81.5301 311.75 80.3328 318.238C78.9758 325.046 78.9758 343.708 80.3328 349.074C83.2863 361.168 88.3152 369.979 93.9028 373.022C108.91 381.112 110.905 381.913 115.455 381.913C118.968 381.913 120.644 381.432 122.879 379.91C129.664 375.265 133.575 365.253 131.26 358.445C130.622 356.603 128.307 352.278 125.992 348.754C122.639 343.627 121.921 341.865 121.921 338.902C121.921 334.817 123.438 330.732 126.551 326.728L128.626 323.844L125.433 326.487C117.93 332.494 117.052 338.582 121.602 351.156C123.996 357.884 124.396 359.887 124.156 364.212C123.837 368.617 123.517 369.578 121.522 371.26C119.526 373.022 118.648 373.262 114.338 372.942C110.027 372.702 108.83 372.221 104.2 368.857C101.326 366.855 97.8142 363.571 96.4572 361.729C88.395 350.676 87.9959 332.975 95.5791 317.437C102.045 304.221 106.595 302.219 124.715 304.461C129.983 305.182 138.923 306.143 144.511 306.704C161.913 308.306 174.126 305.663 186.658 297.413C193.603 292.848 204.539 284.197 212.84 276.669C216.113 273.785 218.907 271.462 219.067 271.623C219.785 272.343 217.71 295.651 216.512 300.296C214.916 306.704 211.324 318.077 210.605 318.798C210.366 319.038 208.131 318.478 205.736 317.437C198.632 314.313 190.33 312.791 184.024 313.272C173.727 314.153 164.307 320.16 160.316 328.57C156.644 336.099 156.884 350.676 160.955 362.37C163.03 368.537 170.294 381.672 171.172 380.871C171.332 380.631 170.933 378.228 170.214 375.425C166.303 360.367 165.425 344.188 168.139 338.101C170.534 332.895 179.075 328.249 186.339 328.249C189.532 328.249 197.275 330.732 201.266 333.135L204.06 334.817L201.585 339.703C200.228 342.426 197.754 348.433 196.157 353.079C194.481 357.724 191.767 364.933 190.091 369.097C185.7 380.311 184.982 383.675 184.982 394.167C184.982 402.817 185.141 404.019 187.217 408.584C190.569 415.953 194.401 419.397 205.975 425.404C210.845 427.967 211.084 427.967 222.1 427.967C233.116 427.967 233.355 427.967 238.065 425.404C245.887 421.239 249.24 418.596 254.269 412.909C261.293 404.9 262.012 403.138 262.012 393.126C262.012 385.677 261.772 384.235 259.857 380.07C257.143 374.224 251.715 367.976 248.043 366.294C246.127 365.413 243.573 365.093 240.459 365.253L235.67 365.493L239.661 367.015C246.207 369.418 251.156 373.022 252.433 376.146C254.668 381.512 253.471 392.005 249.719 399.293C247.564 403.698 240.459 410.586 236.069 412.589C231.12 414.912 221.94 414.831 216.752 412.509C209.647 409.305 204.299 405.38 202.543 402.016C198.392 393.767 202.224 377.668 215.315 348.433C219.705 338.662 218.667 339.222 229.843 341.064C244.53 343.467 260.176 336.099 269.994 322.242C276.779 312.791 281.17 300.697 282.127 288.923C282.367 285.879 282.766 283.396 282.926 283.396C283.085 283.396 288.114 288.202 294.181 294.129C300.168 299.976 306.554 305.983 308.23 307.505C311.982 310.789 323.476 324.485 332.895 337.06C339.441 345.79 346.865 359.086 349.818 367.496C353.33 377.347 354.368 392.405 352.213 401.376C349.818 411.708 340.958 417.555 332.816 414.351C329.064 412.829 324.993 408.584 324.195 405.38C323.875 404.259 324.035 398.412 324.514 392.405C325.871 376.706 325.073 373.423 319.645 371.5L317.09 370.619L319.804 372.942C322.279 374.944 322.598 375.745 322.917 379.99C323.157 383.915 322.758 386.158 320.762 392.005C316.292 404.82 316.372 412.589 321.161 417.475C325.871 422.36 331.139 424.523 337.924 424.443C341.197 424.443 345.029 423.882 346.545 423.241C350.856 421.399 358.04 415.793 360.195 412.509C364.266 406.341 367.379 388.721 366.821 375.585C366.421 368.457 365.863 365.573 363.069 357.244C358.918 344.749 350.058 326.728 343.512 317.597C340.718 313.672 333.215 305.102 326.749 298.454C320.283 291.806 315.174 286.2 315.414 286.04C315.574 285.799 321.081 286.2 327.627 286.921C342.714 288.522 347.503 287.962 354.847 283.557C366.581 276.508 376.878 265.215 385.739 249.356C388.612 244.31 400.267 232.216 405.854 228.452C414.236 222.925 424.054 222.925 435.389 228.532C441.456 231.575 447.522 237.422 449.678 242.308C451.593 246.713 451.114 258.407 448.879 264.494C445.287 274.025 436.347 283.316 427.487 286.76C416.79 290.845 404.178 286.76 400.347 277.95C396.036 268.178 402.981 258.247 414.954 257.206C420.462 256.645 419.903 255.684 413.597 254.883C403.939 253.681 394.04 259.929 391.406 269.06C388.932 277.229 390.209 284.438 395.318 291.086C397.792 294.369 407.451 299.095 414.316 300.296C421.42 301.658 432.436 300.216 438.502 297.253C443.132 295.01 449.438 290.044 451.913 286.68C452.871 285.479 455.185 282.515 457.181 280.113C465.483 270.101 467.079 265.776 466.999 252.961C466.999 239.905 462.928 229.493 454.228 220.042C449.438 214.916 444.25 211.552 436.108 208.508C431.797 206.906 429.402 206.506 422.937 206.506C404.258 206.506 393.482 212.593 378.155 231.816C362.989 250.718 351.893 262.011 346.865 263.453C340.159 265.375 328.984 263.933 317.569 259.688L311.742 257.526L315.973 255.924C342.873 246.153 351.574 241.347 362.35 230.534C369.375 223.486 370.492 221.884 374.484 213.634C379.512 203.062 381.348 195.533 381.348 185.04C381.348 171.665 377.357 160.932 369.375 152.842C363.707 147.156 358.678 144.753 351.415 144.192C347.822 143.952 345.108 143.311 343.751 142.35C341.357 140.668 333.374 137.384 332.895 137.945C332.736 138.105 333.933 138.906 335.53 139.707C337.206 140.588 339.361 142.35 340.479 143.792L342.394 146.355L338.882 148.517C330.82 153.483 327.068 159.49 327.068 167.34C327.068 171.344 327.308 172.065 329.064 173.186C332.496 175.429 335.29 175.589 339.601 173.667C345.587 171.104 351.015 162.614 351.015 155.886C351.015 152.923 352.772 152.282 355.964 154.204C361.552 157.488 365.464 167.34 365.464 178.152C365.464 192.169 359.876 204.263 348.062 215.717C342.235 221.403 336.807 224.447 324.993 228.612C311.103 233.498 308.15 233.498 298.172 228.692C289.551 224.527 285.56 220.763 283.644 214.996C281.17 207.387 282.287 202.02 288.753 191.288C292.664 184.8 296.576 174.308 298.411 165.257C298.97 162.614 299.449 155.966 299.449 150.44C299.369 141.789 299.13 139.547 297.294 134.02C294.819 126.572 290.828 119.443 285.081 112.475C281.808 108.55 279.733 106.948 274.305 104.225C258.979 96.456 247.165 96.3759 232.557 104.065C224.255 108.39 221.621 110.473 216.432 117.04C206.055 130.256 202.783 145.153 206.215 163.335C208.53 175.669 212.042 182.878 223.617 199.057C226.091 202.421 226.65 206.826 225.453 211.712C224.574 215.236 224.255 215.717 222.579 215.476C218.667 215.076 205.257 208.188 198.632 203.302C194.641 200.258 174.126 174.949 169.097 166.699C166.064 161.813 162.232 151.561 161.514 146.355L160.955 142.67L167.979 140.908C177.159 138.586 181.789 136.583 188.255 132.338C202.703 122.727 207.093 111.914 201.186 99.9801C197.514 92.4513 194.241 88.9271 188.654 86.284C184.742 84.4418 182.747 83.9613 178.596 84.0414C175.722 84.0414 172.13 84.5219 170.534 85.1627ZM188.255 100.541C192.405 104.305 193.762 107.028 193.762 111.754C193.762 116.319 192.565 118.242 186.658 124.008C180.512 129.855 171.412 134.741 163.669 136.423C161.115 136.904 161.035 136.904 161.035 134.18C161.035 129.695 163.27 118.001 165.106 113.036C166.942 108.31 172.29 101.742 176.6 99.0991C180.592 96.6162 184.423 97.0967 188.255 100.541ZM345.428 156.447C345.428 159.49 343.592 162.534 339.521 166.298C335.689 169.823 333.933 170.463 333.215 168.541C331.858 165.097 336.248 158.129 340.958 155.966C345.188 154.044 345.428 154.044 345.428 156.447ZM254.508 279.712C255.067 282.836 255.546 289.323 255.546 294.209C255.626 301.818 255.307 303.901 253.391 309.587C250.517 317.837 249.08 319.759 243.652 321.762C239.661 323.283 228.885 324.965 228.885 324.084C228.885 322.563 232.796 312.951 237.506 302.939C240.539 296.372 244.371 287.241 246.047 282.595C247.723 277.95 249.559 273.064 250.118 271.623C250.757 270.261 251.236 268.659 251.315 268.018C251.395 266.176 253.471 273.705 254.508 279.712Z" fill="#EE750D"/>
</svg>
